<svg xmlns="http://www.w3.org/2000/svg" width="492.777" height="112.921" viewBox="0 0 492.777 112.921">
  <defs>
    <style>
      .cls-1 {
        fill: #daeeff;
      }

      .cls-2 {
        fill: none;
        stroke: #2058a1;
        stroke-width: 12px;
      }
    </style>
  </defs>
  <g id="グループ_529" data-name="グループ 529" transform="translate(-327.496 -3402.108)">
    <path id="合体_10" data-name="合体 10" class="cls-1" d="M180.436,50.752a94.859,94.859,0,0,1-24.146-9.6c-4.486-2.587-9.132-5.692-13.857-8.995a25.7,25.7,0,0,0,11.4,2.4c30.193,0,30.193-34.175,60.386-34.175s30.194,34.175,60.387,34.175S304.8.384,335,.384s30.193,34.175,60.387,34.175S425.577.384,455.77.384c26.6,0,29.767,26.528,50.793,32.839-11.485,5.652-21.535,10-23.221,10.725a.468.468,0,0,1-.03.545c-21.495,33.9-66.444,62.438-141.457,62.438C266.762,106.932,201.933,84.812,180.436,50.752ZM506.562,33.223c17.9-8.809,39.285-20.786,37.929-27.146-.145-.726,4.833-1.606,10.934-2.459-15.553,8.864-16.5,30.941-39.268,30.941A33.1,33.1,0,0,1,506.562,33.223Zm-370.535-5.6c2.146,1.533,4.284,3.056,6.405,4.538A24.691,24.691,0,0,1,136.028,27.622Zm-25.1-16.729C95.931,2.512,79.629,2.053,93.447.384c27.959-3.376,31.207,16.3,42.581,27.238C127.646,21.634,119.132,15.481,110.926,10.894ZM576.544.384c3.178.383-10.631,1.768-21.119,3.234C560.494.73,567.111-.755,576.544.384Z" transform="translate(243.265 3408.097)"/>
    <path id="パス_190" data-name="パス 190" class="cls-2" d="M-2275,2215.009c38.382-4.634,30.194,34.175,60.387,34.175s30.194-34.175,60.387-34.175,30.194,34.175,60.387,34.175,30.193-34.175,60.387-34.175,30.194,34.175,60.388,34.175,30.194-34.175,60.387-34.175,30.193,34.175,60.387,34.175,22.005-38.809,60.387-34.175" transform="translate(2603.216 1193.472)"/>
  </g>
</svg>
