<svg width="512" height="512" viewBox="0 0 512 512" fill="none" xmlns="http://www.w3.org/2000/svg">
<g clip-path="url(#clip0_2_120)">
<path d="M478.047 400.316C458.691 381.892 396.604 344.267 380.935 339.182C365.276 334.086 344.594 347.85 337.593 366.564C330.581 385.279 320.743 382.586 320.743 382.586C320.743 382.586 283.501 365.114 219.239 288.86C154.977 212.606 144.072 172.94 144.072 172.94C144.072 172.94 143.088 162.78 162.734 159.042C182.349 155.313 199.427 137.273 197.055 120.971C194.715 104.67 168.151 37.095 153.279 14.911C138.377 -7.26201 105.153 0.609993 97.593 5.14599C90.022 9.68199 10.837 50.838 25.751 140.638C40.685 230.439 83.011 304.932 131.655 362.66C180.299 420.386 246.539 474.747 332.518 504.678C418.476 534.608 472.474 463.542 478.222 456.852C483.971 450.172 497.361 418.761 478.047 400.316Z" fill="#30579C"/>
</g>
<defs>
<clipPath id="clip0_2_120">
<rect width="512" height="512" fill="white"/>
</clipPath>
</defs>
</svg>
