<?xml version="1.0" encoding="UTF-8"?>
<svg id="_レイヤー_2" data-name="レイヤー 2" xmlns="http://www.w3.org/2000/svg" viewBox="0 0 310.83 156.01">
  <defs>
    <style>
      .cls-1 {
        fill: none;
        stroke: #e9ab56;
        stroke-miterlimit: 10;
        stroke-width: 8px;
      }
    </style>
  </defs>
  <g id="_レイヤー_1-2" data-name=" レイヤー 1">
    <g>
      <path class="cls-1" d="M6.05,94.4l121-2,10.7-13.8-12.6-28.3c29.2-.5,58.5-.9,87.7-1.4,7.2,13.1,14.3,26.3,21.5,39.4l70.2-.3c-9.8,21.1-19.7,42.1-29.5,63.2-81.3,.3-162.5,.5-243.8,.8-.9-2.1-1.9-4.3-2.8-6.4-7.5-17-15-34.1-22.4-51.2h0Z"/>
      <path class="cls-1" d="M180.45,89.3c18.4-.3,36.7-.6,55.1-.9-7.6-13.1-15.2-26.2-22.8-39.3-15.5,.3-31,.6-46.4,1,4.7,13.1,9.4,26.2,14.1,39.2h0Z"/>
      <path class="cls-1" d="M208.75,91l-17.8-41.4,17.8,41.4h0Z"/>
      <polyline class="cls-1" points="75.65 4 96.05 4 96.35 94.2"/>
      <path class="cls-1" d="M15.05,111.2l49.7-.7-49.7,.7Z"/>
    </g>
  </g>
</svg>